<svg xmlns="http://www.w3.org/2000/svg" height="360" width="600" viewBox="0 0 600 360"><path stroke="#000" stroke-width="2" fill="none" d="M1 3h598v216H1z"/><g stroke="#000" fill="none"><path d="M88.5 68.49l-15 23.5" stroke-width="1"/><path d="M98.5 68.49l15 23.5" stroke-width=".5"/><g stroke-width="4" transform="matrix(.25 0 0 .25 26 -110.35)"><circle cy="684.86" cx="270" r="36"/><circle cx="170" cy="839.86" r="36"/><circle cx="370" cy="839.86" r="36"/></g><g stroke-width="4" transform="matrix(.25 0 0 .25 26 -110.35)"><path d="M290 715.36l60 94M150 870.36l-60 94"/><circle cy="994.86" cx="70" r="36"/><path d="M190 870.36l60 94"/><circle cx="270" cy="994.86" r="36"/></g></g><text font-size="12.5" y="862.15" x="66.889" font-family="sans-serif" fill="#164bc5" word-spacing="0" letter-spacing="0" transform="translate(0 -692.36)"><tspan y="862.15" x="66.889">Blue</tspan></text><g stroke="#000" fill="none"><path d="M181.5 68.49l15 23.5"/><path d="M171.5 68.49l-15 23.5" stroke-width=".5"/><g transform="matrix(-1 0 0 1 -50 -582.36)"><circle cx="-226.5" cy="643.22" r="9"/><circle cy="681.97" cx="-251.5" r="9"/><circle cy="681.97" cx="-201.5" r="9"/></g><g transform="translate(-50 -582.36)"><path d="M221.5 650.85l-15 23.5M256.5 689.6l15 23.5"/><circle cx="-276.5" transform="scale(-1 1)" cy="720.72" r="9"/><path d="M246.5 689.6l-15 23.5"/><circle transform="scale(-1 1)" cy="720.72" cx="-226.5" r="9"/></g></g><text font-size="12.5" y="862.15" x="174.889" font-family="sans-serif" fill="#164bc5" word-spacing="0" letter-spacing="0" transform="translate(0 -692.36)"><tspan y="862.15" x="174.889">Blue</tspan></text><g stroke="#000" fill="none"><path d="M304.5 68.49l-15 23.5" stroke-width="1"/><path d="M314.5 68.49l15 23.5" stroke-width=".5"/><g stroke-width="4" transform="matrix(.25 0 0 .25 242 -110.35)"><circle cy="684.86" cx="270" r="36"/><circle cx="170" cy="839.86" r="36"/><circle cx="370" cy="839.86" r="36"/></g><g stroke-width="4" transform="matrix(.25 0 0 .25 242 -110.35)"><path d="M290 715.36l60 94M150 870.36l-60 94"/><circle cy="994.86" cx="70" r="36"/><path d="M190 870.36l60 94"/><circle cx="270" cy="994.86" r="36"/></g></g><g stroke="#000" fill="none"><path d="M412.5 68.49l-15 23.5" stroke-width="1"/><path d="M422.5 68.49l15 23.5" stroke-width=".5"/><g stroke-width="4" transform="matrix(.25 0 0 .25 350 -110.35)"><circle cx="270" cy="684.86" r="36"/><circle cy="839.86" cx="170" r="36"/><circle cy="839.86" cx="370" r="36"/></g><g stroke-width="4" transform="matrix(.25 0 0 .25 350 -110.35)"><path d="M290 715.36l60 94M150 870.36l-60 94"/><circle cx="70" cy="994.86" r="36"/><path d="M190 870.36l60 94"/><circle cy="994.86" cx="270" r="36"/></g></g><text font-size="12.5" y="862.15" x="390.889" font-family="sans-serif" fill="#164bc5" word-spacing="0" letter-spacing="0" transform="translate(0 -692.36)"><tspan y="862.15" x="390.889">Blue</tspan></text><g stroke="#000" fill="none"><path d="M505.5 68.49l15 23.5"/><path d="M495.5 68.49l-15 23.5" stroke-width=".5"/><g transform="matrix(-1 0 0 1 -34 -582.36)"><circle cy="643.22" cx="-534.5" r="9"/><circle cx="-559.5" cy="681.97" r="9"/><circle cx="-509.5" cy="681.97" r="9"/></g><g transform="translate(-34 -582.36)"><path d="M529.5 650.85l-15 23.5M564.5 689.6l15 23.5"/><circle transform="scale(-1 1)" cy="720.72" cx="-584.5" r="9"/><path d="M554.5 689.6l-15 23.5"/><circle cx="-534.5" transform="scale(-1 1)" cy="720.72" r="9"/></g></g><text font-size="12.5" y="862.15" x="278.253" font-family="sans-serif" fill="#0f9640" word-spacing="0" letter-spacing="0" transform="translate(0 -692.36)"><tspan y="862.15" x="278.253">Green</tspan></text><text font-size="12.5" y="862.15" x="501.077" font-family="sans-serif" fill="red" word-spacing="0" letter-spacing="0" transform="translate(0 -692.36)"><tspan y="862.15" x="501.077">Red</tspan></text><g stroke-linejoin="round" stroke="#000" stroke-width="2" fill="none"><path d="M300 244v60l-20-20M300 304l20-20"/></g><text font-size="40" y="1042.76" x="266.133" font-family="sans-serif" fill="#164bc5" word-spacing="0" letter-spacing="0" transform="translate(0 -692.36)"><tspan font-size="30" y="1042.76" x="266.133">Blue</tspan></text></svg>